<svg width="36" height="36" viewBox="0 0 36 36" fill="none" xmlns="http://www.w3.org/2000/svg">
    <path d="M18 36C27.9411 36 36 27.9411 36 18C36 8.05887 27.9411 0 18 0C8.05887 0 0 8.05887 0 18C0 27.9411 8.05887 36 18 36Z" fill="#BFBFBF"/>
    <path d="M18.7239 35.9842C28.3143 35.6047 35.9755 27.723 35.9994 18.0452L23.3172 5.36298L21.0703 7.85148L17.3777 8.3097L13.8037 4.73572L14.3203 7.66402L10.5772 13.4091L13.2324 16.0643L12.417 16.8358L9.50968 13.9285L7.29688 23.3912L14.8043 30.8987L14.0382 31.1215L18.7239 35.9842Z" fill="#BFBFBF"/>
    <path d="M8.30433 13.4092C7.38766 13.4092 6.64453 14.1523 6.64453 15.069V22.0725C6.64453 22.9892 7.38766 23.7323 8.30433 23.7323C9.22099 23.7323 9.96413 22.9892 9.96413 22.0725V15.069C9.96413 14.1522 9.22099 13.4092 8.30433 13.4092Z" fill="white"/>
    <path d="M27.6954 13.4092C26.7788 13.4092 26.0356 14.1523 26.0356 15.069V22.0725C26.0356 22.9892 26.7788 23.7323 27.6954 23.7323C28.6121 23.7323 29.3552 22.9892 29.3552 22.0725V15.069C29.3552 14.1522 28.6121 13.4092 27.6954 13.4092Z" fill="white"/>
    <path d="M22.0819 7.4109L23.3171 5.36305L22.2771 4.73579L21.0096 6.83736C20.0995 6.44262 19.0956 6.22339 18.0404 6.22339C16.9851 6.22339 15.9813 6.44255 15.0712 6.83736L13.8036 4.73572L12.7637 5.36298L13.9989 7.4109C12.0115 8.69248 10.6712 10.8913 10.5771 13.4091H25.5036C25.4096 10.8913 24.0693 8.69248 22.0819 7.4109ZM14.6601 10.5753C14.2409 10.5753 13.901 10.2355 13.901 9.81629C13.901 9.39708 14.2409 9.05726 14.6601 9.05726C15.0793 9.05726 15.4191 9.39708 15.4191 9.81629C15.4191 10.2354 15.0793 10.5753 14.6601 10.5753ZM21.3397 10.5753C20.9205 10.5753 20.5807 10.2355 20.5807 9.81629C20.5807 9.39708 20.9205 9.05726 21.3397 9.05726C21.7589 9.05726 22.0988 9.39708 22.0988 9.81629C22.0988 10.2354 21.7589 10.5753 21.3397 10.5753Z" fill="white"/>
    <path d="M22.082 7.41095L23.3173 5.3631L22.2773 4.73584L21.0096 6.83741C20.0996 6.44268 19.0957 6.22344 18.0405 6.22344C18.0348 6.22344 18.0291 6.22365 18.0234 6.22365V13.4092H25.5037C25.4098 10.8913 24.0695 8.69254 22.082 7.41095ZM21.3399 10.5754C20.9207 10.5754 20.5808 10.2355 20.5808 9.81634C20.5808 9.39714 20.9207 9.05732 21.3399 9.05732C21.7591 9.05732 22.0989 9.39714 22.0989 9.81634C22.0989 10.2355 21.7591 10.5754 21.3399 10.5754Z" fill="white"/>
    <path d="M10.5308 26.1815H13.486V29.8857C13.486 30.8023 14.2291 31.5455 15.1458 31.5455C16.0625 31.5455 16.8056 30.8023 16.8056 29.8857V26.1815H19.1131V29.8857C19.1131 30.8023 19.8562 31.5455 20.7729 31.5455C21.6896 31.5455 22.4327 30.8023 22.4327 29.8857V26.1815H25.4689V14.5224H10.5308V26.1815Z" fill="white"/>
    <path d="M18.0234 14.5224V26.1815H19.1133V29.8857C19.1133 30.8023 19.8564 31.5455 20.7731 31.5455C21.6897 31.5455 22.4329 30.8023 22.4329 29.8857V26.1815H25.4691V14.5224H18.0234Z" fill="white"/>
</svg>
