<svg width="36" height="36" viewBox="0 0 36 36" fill="none" xmlns="http://www.w3.org/2000/svg">
<path d="M18 35.2969C27.5528 35.2969 35.2969 27.5528 35.2969 18C35.2969 8.4472 27.5528 0.703125 18 0.703125C8.4472 0.703125 0.703125 8.4472 0.703125 18C0.703125 27.5528 8.4472 35.2969 18 35.2969Z" fill="#F2E4FF"/>
<path fill-rule="evenodd" clip-rule="evenodd" d="M18.0369 32.7262V30.5442C24.9487 30.5243 30.5452 24.9163 30.5452 17.9995C30.5452 11.0832 24.9487 5.47525 18.0369 5.45529V3.27327C26.1537 3.29373 32.7267 9.87819 32.7267 17.9995C32.7267 26.1213 26.1537 32.7063 18.0369 32.7262ZM18.0369 25.0889C21.9354 25.0685 25.0909 21.9035 25.0909 17.9995C25.0909 14.096 21.9354 10.931 18.0369 10.9106V8.72906C23.1409 8.74902 27.2729 12.891 27.2729 17.9995C27.2729 23.1085 23.1409 27.2505 18.0369 27.2704V25.0889ZM18.0369 14.1833C20.1281 14.2033 21.8182 15.9033 21.8182 17.9995C21.8182 20.0962 20.1281 21.7962 18.0369 21.8162V14.1833ZM0 17.9995C0 27.9411 8.05844 36 18 36C27.9411 36 36 27.9411 36 17.9995C36 8.05844 27.9411 0 18 0C8.05844 0 0 8.05844 0 17.9995Z" fill="url(#paint0_linear)"/>
<path d="M18 2.03906C9.02969 2.03906 1.75781 9.27946 1.75781 18.2109C1.75781 27.1424 9.02969 34.3828 18 34.3828V2.03906Z" fill="black"/>
<path d="M18 2.03906C9.02969 2.03906 1.75781 9.27946 1.75781 18.2109C1.75781 27.1424 9.02969 34.3828 18 34.3828V2.03906Z" fill="url(#paint1_linear)"/>
<defs>
<linearGradient id="paint0_linear" x1="18" y1="36" x2="18" y2="0" gradientUnits="userSpaceOnUse">
<stop stop-color="#420C5D"/>
<stop offset="1" stop-color="#951AD1"/>
</linearGradient>
<linearGradient id="paint1_linear" x1="9.87891" y1="34.3828" x2="9.87891" y2="2.03906" gradientUnits="userSpaceOnUse">
<stop stop-color="#420C5D"/>
<stop offset="1" stop-color="#951AD1"/>
</linearGradient>
</defs>
</svg>
